<svg xmlns="http://www.w3.org/2000/svg" version="1.1" xmlns:xlink="http://www.w3.org/1999/xlink" xmlns:svgjs="http://svgjs.dev/svgjs" width="120" height="120" viewBox="0 0 1500 1687"><g transform="matrix(1,0,0,1,2.2737367544323206e-13,0)"><svg viewBox="0 0 320 360" data-background-color="#ffffff" preserveAspectRatio="xMidYMid meet" height="1687" width="1500" xmlns="http://www.w3.org/2000/svg" xmlns:xlink="http://www.w3.org/1999/xlink"><g id="tight-bounds" transform="matrix(1,0,0,1,0,0)"><svg viewBox="0 0 320 360" height="360" width="320"><g><svg></svg></g><g><svg viewBox="0 0 320 360" height="360" width="320"><g><path d="M20.961 227.22l3.726 4.658-1.863-6.056c-0.466-2.795-3.726 0.466-1.863 1.398M25.153 224.425c1.397 2.329 2.795 4.658 2.795 6.987 0 3.261 2.795 4.658 5.123 5.589-3.261-3.726-5.124-13.974-7.918-12.576M204.017 26.929c7.918 0 15.371-0.932 23.756 0.931 20.495 5.124 37.729 15.371 49.374 29.811l32.606 52.169c1.397 13.042 4.192 27.482 3.726 43.319 3.261 0 2.795-4.658 6.521-5.59-3.726 9.316-5.59 20.961-6.521 34.469-2.329-7.453 0-18.632 0.466-24.687-3.261 5.124-5.124 1.397-5.124-0.932 0.466-3.726-1.397-3.261-2.795-4.658-5.124-4.658-8.384-9.782-12.11-17.7 2.329-6.055 2.795-14.905-4.658-19.563-2.329-1.397-5.124-3.726-6.521-7.453-1.863-5.124-5.124-11.179-4.193-19.097 0.466-2.329-6.987 5.124-11.179 1.863-18.166-12.576-36.332-27.016-58.224-39.127-11.645 0-20.029-4.192-24.221-9.316-3.726-4.658-0.932-10.713 4.658-11.179 3.261 0 6.987-0.932 9.782 0.932 0.466-1.863 2.329-4.192 4.657-4.192M157.904 16.215l0.932 0.466c4.658 0.932 6.987 7.453 12.11 5.124 0 3.261 0.466 6.521-0.466 8.85-1.397 3.726-5.59 3.726-8.85 3.726-31.208-1.863-49.374 11.179-68.471 22.358-5.124 3.261-10.713 5.59-14.906 9.782-20.029 18.632-41.921 35.866-47.045 70.335l-4.192 38.195c-0.466 4.192-5.124 8.384-4.192 13.508l3.26 22.824c-3.261-3.261-5.124 0.932-4.192 2.795 0.466 1.397 2.329 6.055 5.124 1.863 3.726 6.987 7.453 20.495 12.576 26.55 15.837 18.632 36.332 35.4 53.101 52.169 4.192-0.932 7.453-0.932 8.384-3.727 1.397 2.795-1.397 5.59-3.726 6.056 7.453 4.658 15.837 8.85 27.016 9.781 14.44 0.932 27.948 3.261 40.524 6.522 6.521-1.863 13.042-2.795 20.029-3.261 2.329 0 3.726-3.726 6.521-4.658l0.466-4.658c2.795 4.192 2.329-1.397 0.466-4.192 3.261 2.795 4.192 5.124 5.589 6.987 0-1.397 3.726-6.521 3.727-0.466l0.931-6.055c1.397-0.932 1.863 5.124 3.261 0.931 1.397-4.192 4.192-0.932 6.987-2.329-0.932 1.863-0.466 5.59 2.794 3.261l3.727-3.261c2.329 5.59 6.055 3.261 7.918 2.329 20.495-13.042 40.99-28.413 60.553-43.784l-0.466 6.055 2.329-7.453c2.329 2.329 4.192 0.466 5.124-0.931 2.795-4.658 6.521-9.316 12.577-13.508-7.453 20.029-16.303 35.866-27.482 48.908l-4.658 5.59c0 3.261-0.932 7.453-4.658 7.918-1.863 0.466-5.59-0.932-8.384 1.863-1.397 1.863 3.261 5.59-0.466 2.795-3.261-2.329-6.521 0-10.248 0.932-2.795 0.932 1.863 3.726 2.795 5.589 0.932 1.863 1.863 3.726 1.398 6.056l-5.124-5.59c-6.055 3.261-9.782 9.316-14.906 13.974-2.329 1.863-1.397 5.124-1.397 7.918-3.261 0-6.987-0.932-8.85 0.932-1.397 1.863-0.932 4.658-0.932 7.453-4.658-0.466-5.124-7.453-9.315-6.056-4.192 0.932-8.85 1.397-12.577 3.727 2.795 5.59-4.658 2.329-3.726 3.26-6.987-4.192-13.042-7.453-20.495-4.658-15.837-5.124-35.4-2.795-49.84-0.931 0-2.329 0.466-4.658-0.466-5.124-0.932 2.329-3.726 1.397-3.26 1.397-8.85-6.055-17.7-9.782-27.016-14.905-8.384 0.932-16.303-3.261-18.632-5.59-6.521-6.055-13.974-2.795-20.029-4.192-13.042-3.261-17.7-16.769-19.098-26.084-0.932-4.658-4.658-6.521-6.055-6.056-6.055-19.563-15.371-37.263-22.824-55.429-1.863-4.658-1.397-9.316-1.397-14.44 2.329 0.932 4.658 0.466 4.192-2.794-2.329-15.371-7.918-27.016-13.974-38.195 3.261-15.837 3.726-34.469 11.179-48.443 6.521-12.576 18.632-19.098 27.016-29.811 2.795-3.726 2.795-8.85 5.59-12.11 9.316-9.316 18.632-19.098 28.879-27.482 4.658-3.726 10.247 0 17.234-1.397 2.329-8.384 11.645-15.837 20.495-13.508 3.726 0.932 11.179-8.85 13.508-9.782 3.726-1.397 1.863 3.726 1.863 6.987 8.85-6.987 20.961-10.713 32.14-14.906" fill="#e09f05" fill-rule="nonzero" stroke="none" stroke-width="1" stroke-linecap="butt" stroke-linejoin="miter" stroke-miterlimit="10" stroke-dasharray="" stroke-dashoffset="0" font-family="none" font-weight="none" font-size="none" text-anchor="none" style="mix-blend-mode: normal" data-fill-palette-color="tertiary"></path></g><g transform="matrix(1,0,0,1,64,121.29974811083123)"><svg viewBox="0 0 192 117.40050377833754" height="117.40050377833754" width="192"><g><svg viewBox="0 0 192 117.40050377833754" height="117.40050377833754" width="192"><g><svg viewBox="0 0 192 117.40050377833754" height="117.40050377833754" width="192"><g id="textblocktransform"><svg viewBox="0 0 192 117.40050377833754" height="117.40050377833754" width="192" id="textblock"><g><svg viewBox="0 0 192 117.40050377833754" height="117.40050377833754" width="192"><g transform="matrix(1,0,0,1,0,0)"><svg width="192" viewBox="2.6 -37.7 79.39 48.550000000000004" height="117.40050377833754" data-palette-color="#e09f05"><path d="M8.45 0.75Q5.75 0.75 4.17-0.93 2.6-2.6 2.6-5.4L2.6-5.4 2.6-37.05 8.75-37.7 8.75-5.65Q8.75-5 9.05-4.6 9.35-4.2 9.95-4.2L9.95-4.2Q10.3-4.2 10.63-4.3 10.95-4.4 11.05-4.4L11.05-4.4 12.25-0.2Q10.55 0.75 8.45 0.75L8.45 0.75ZM24.7-27.15Q29.7-27.15 32.47-23.65 35.25-20.15 35.25-13.25L35.25-13.25Q35.25-6.65 32.45-2.95 29.65 0.75 24.7 0.75L24.7 0.75Q19.75 0.75 16.95-2.88 14.15-6.5 14.15-13.25L14.15-13.25Q14.15-19.95 16.95-23.55 19.75-27.15 24.7-27.15L24.7-27.15ZM24.7-22.5Q22.55-22.5 21.55-20.38 20.55-18.25 20.55-13.25L20.55-13.25Q20.55-8.2 21.55-6.08 22.55-3.95 24.7-3.95L24.7-3.95Q26.85-3.95 27.85-6.08 28.85-8.2 28.85-13.25L28.85-13.25Q28.85-18.3 27.85-20.4 26.85-22.5 24.7-22.5L24.7-22.5ZM57.75-29.85L59.3-25.1Q58.25-24.6 56.77-24.4 55.3-24.2 53.1-24.2L53.1-24.2Q55.2-23.2 56.22-21.53 57.25-19.85 57.25-17.4L57.25-17.4Q57.25-13.4 54.8-10.95 52.35-8.5 48.15-8.5L48.15-8.5Q46.9-8.5 45.6-8.9L45.6-8.9Q44.7-8.15 44.7-6.85L44.7-6.85Q44.7-5.85 45.25-5.35 45.8-4.85 47.3-4.85L47.3-4.85 50.1-4.85Q54.1-4.85 56.45-2.78 58.8-0.7 58.8 2.5L58.8 2.5Q58.8 6.3 55.87 8.58 52.95 10.85 47.55 10.85L47.55 10.85Q41.85 10.85 39.57 8.75 37.3 6.65 37.3 2.6L37.3 2.6 42.75 2.6Q42.75 4.75 43.75 5.65 44.75 6.55 47.6 6.55L47.6 6.55Q50.35 6.55 51.5 5.6 52.65 4.65 52.65 2.9L52.65 2.9Q52.65 1.2 51.7 0.4 50.75-0.4 48.75-0.4L48.75-0.4 46.85-0.4Q43.05-0.4 41.3-1.75 39.55-3.1 39.55-5.45L39.55-5.45Q39.55-6.8 40.27-8.03 41-9.25 42.25-10.2L42.25-10.2Q40.2-11.5 39.25-13.3 38.3-15.1 38.3-17.7L38.3-17.7Q38.3-22.05 40.9-24.58 43.5-27.1 47.9-27.1L47.9-27.1Q51.15-27.1 53.27-27.8 55.4-28.5 57.75-29.85L57.75-29.85ZM47.9-23Q46.15-23 45.25-21.75 44.35-20.5 44.35-17.8L44.35-17.8Q44.35-15.25 45.25-13.88 46.15-12.5 47.85-12.5L47.85-12.5Q49.6-12.5 50.45-13.73 51.3-14.95 51.3-17.85L51.3-17.85Q51.3-20.55 50.47-21.78 49.65-23 47.9-23L47.9-23ZM71.44-27.15Q76.44-27.15 79.22-23.65 81.99-20.15 81.99-13.25L81.99-13.25Q81.99-6.65 79.19-2.95 76.39 0.75 71.44 0.75L71.44 0.75Q66.49 0.75 63.69-2.88 60.89-6.5 60.89-13.25L60.89-13.25Q60.89-19.95 63.69-23.55 66.49-27.15 71.44-27.15L71.44-27.15ZM71.44-22.5Q69.29-22.5 68.29-20.38 67.29-18.25 67.29-13.25L67.29-13.25Q67.29-8.2 68.29-6.08 69.29-3.95 71.44-3.95L71.44-3.95Q73.59-3.95 74.59-6.08 75.59-8.2 75.59-13.25L75.59-13.25Q75.59-18.3 74.59-20.4 73.59-22.5 71.44-22.5L71.44-22.5Z" opacity="1" transform="matrix(1,0,0,1,0,0)" fill="#e09f05" class="wordmark-text-0" data-fill-palette-color="primary" id="text-0"></path></svg></g></svg></g></svg></g></svg></g><g></g></svg></g></svg></g></svg></g><defs></defs></svg><rect width="320" height="360" fill="none" stroke="none" visibility="hidden"></rect></g></svg></g></svg>